<?xml version="1.0"?><svg width="640" height="480" xmlns="http://www.w3.org/2000/svg">
 <g>
  <path d="m414.682617,278.616882c0.018066,60.508209 -49.028503,109.569366 -109.536743,109.569366c-60.508209,0 -109.554749,-49.061157 -109.536713,-109.569366c-0.018036,-60.508224 49.028503,-109.569397 109.536713,-109.569397c60.50824,0 109.55481,49.061172 109.536743,109.569397z" id="path2383" stroke-miterlimit="4" stroke-linejoin="round" stroke-linecap="round" stroke-width="4" stroke="#000000" fill-rule="nonzero" fill="#ffffff"/>
  <path d="m312.326172,389.186554c0,9.090759 14.665344,9.381348 32.735107,9.381348c18.069824,0 32.735168,0.693481 32.735168,-9.381348c0,-17.715942 -14.665344,-32.094116 -32.735168,-32.094116c-18.069763,0 -32.735107,14.378174 -32.735107,32.094116z" id="path3172" stroke-miterlimit="4" stroke-linejoin="round" stroke-linecap="round" stroke-width="4" stroke="#000000" fill-rule="nonzero" fill="#ffffff"/>
  <path d="m357.651733,397.966949c0,-16.367554 -9.44281,-26.439941 -9.44281,-26.439941c0,0 3.7771,13.849487 3.147583,26.439941l6.295227,0z" id="path3174" stroke-miterlimit="4" stroke-linejoin="round" stroke-width="4" stroke="#000000" fill-rule="evenodd" fill="#ffffff"/>
  <path d="m301.484131,148.321594c-30.129211,0.683929 -50.931671,13.052826 -63.624969,32.20285c-24.064438,-2.89859 -44.0625,26.462311 -44.0625,26.462311c0,0 18.891129,10.580811 32.0625,1.715149c-2.399231,9.757996 -3.5625,20.280457 -3.5625,31.257721c0,50.599915 56.125519,91.673096 81.843719,91.673096c26.716614,0 81.84375,-41.073181 81.84375,-91.673096c0,-10.977264 -1.163879,-21.499725 -3.5625,-31.257721c13.171417,8.865662 32.03125,-1.715149 32.03125,-1.715149c0,0 -19.971191,-29.351685 -44.03125,-26.462311c-13.061646,-19.70813 -34.707642,-32.20285 -66.28125,-32.20285c-0.893921,0 -1.778137,-0.019928 -2.65625,0z" id="path3155" stroke-miterlimit="4" stroke-linejoin="round" stroke-linecap="round" stroke-width="4" stroke="#000000" fill-rule="nonzero" fill="#ffffff"/>
  <path d="m335.109131,152.078033c22.642822,-2.369171 34.040344,-7.446167 39.5,-12c17.754211,-14.808411 11.325378,-28.549896 22.000031,-25.5c10.499969,3 10.476746,14.694916 17.499969,18c8.500031,4 -2.037109,-35.167847 6.500031,-32.5c8,2.5 8.971832,22.345093 21,27.5c10.499969,4.5 -6.609039,-46.582703 8,-35.5c14.499969,11 35,55 1,67c-34,12 -84.446686,15.486877 -101.000031,15c-17,-0.5 -32.659851,-20.099854 -14.5,-22z" id="path2399" stroke-miterlimit="4" stroke-linejoin="round" stroke-width="4" stroke="#000000" fill-rule="evenodd" fill="#ffffff"/>
  <path d="m300.516357,218.146606c0.003723,12.518936 -10.143799,22.669525 -22.662781,22.669525c-12.518921,0 -22.666473,-10.150589 -22.66275,-22.669525c-0.003723,-12.518951 10.143829,-22.669525 22.66275,-22.669525c12.518982,0 22.666504,10.150574 22.662781,22.669525z" id="path3157" stroke-miterlimit="4" stroke-linejoin="round" stroke-linecap="round" stroke-width="3.88889" stroke="#000000" fill-rule="nonzero" fill="#ffffff"/>
  <path d="m353.248566,218.146606c0.003754,12.518936 -10.143829,22.669525 -22.66275,22.669525c-12.518951,0 -22.666504,-10.150589 -22.662781,-22.669525c-0.003723,-12.518951 10.143829,-22.669525 22.662781,-22.669525c12.518921,0 22.666504,10.150574 22.66275,22.669525z" id="path3159" stroke-miterlimit="4" stroke-linejoin="round" stroke-linecap="round" stroke-width="3.88889" stroke="#000000" fill-rule="nonzero" fill="#ffffff"/>
  <path d="m333.103882,222.146637c0.001251,4.172974 -3.381287,7.556488 -7.55426,7.556488c-4.172974,0 -7.555481,-3.383514 -7.55426,-7.556488c-0.001221,-4.172989 3.381287,-7.556503 7.55426,-7.556503c4.172974,0 7.555511,3.383514 7.55426,7.556503z" id="path3161" stroke-miterlimit="4" stroke-linejoin="round" stroke-linecap="round" stroke-width="47.666691" fill-rule="nonzero" fill="#000000"/>
  <path d="m291.073547,222.146637c0.001251,4.172974 -3.381287,7.556488 -7.55426,7.556488c-4.172974,0 -7.555481,-3.383514 -7.55426,-7.556488c-0.001221,-4.172989 3.381287,-7.556503 7.55426,-7.556503c4.172974,0 7.555511,3.383514 7.55426,7.556503z" id="path3163" stroke-miterlimit="4" stroke-linejoin="round" stroke-linecap="round" stroke-width="47.666691" fill-rule="nonzero" fill="#000000"/>
  <path d="m297.328369,389.186554c0,9.090759 -14.665344,9.381348 -32.735107,9.381348c-18.069778,0 -32.735123,0.693481 -32.735123,-9.381348c0,-17.715942 14.665344,-32.094116 32.735123,-32.094116c18.069763,0 32.735107,14.378174 32.735107,32.094116z" id="path3329" stroke-miterlimit="4" stroke-linejoin="round" stroke-linecap="round" stroke-width="4" stroke="#000000" fill-rule="nonzero" fill="#ffffff"/>
  <path d="m252.002853,397.966949c0,-16.367554 9.442825,-26.439941 9.442825,-26.439941c0,0 -3.777161,13.849487 -3.147644,26.439941l-6.295181,0z" id="path3331" stroke-miterlimit="4" stroke-linejoin="round" stroke-width="4" stroke="#000000" fill-rule="evenodd" fill="#ffffff"/>
  <path d="m320.741333,294.277985c-2.292725,3.973083 -6.500244,5.838562 -9.396729,4.16626c-2.896545,-1.672302 -3.384766,-6.248901 -1.090332,-10.221008c2.292725,-3.973083 6.500305,-5.838562 9.39679,-4.16626c2.896545,1.672302 3.384705,6.248901 1.090271,10.221008z" id="path2398" stroke-miterlimit="4" stroke-linejoin="round" stroke-linecap="round" stroke-width="47.666691" fill-rule="nonzero" fill="#000000"/>
  <path d="m288.004272,294.277985c2.292725,3.973083 6.500305,5.838562 9.39679,4.16626c2.896545,-1.672302 3.384705,-6.248901 1.090271,-10.221008c-2.292725,-3.973083 -6.500244,-5.838562 -9.39679,-4.16626c-2.896484,1.672302 -3.384705,6.248901 -1.090271,10.221008z" id="path2412" stroke-miterlimit="4" stroke-linejoin="round" stroke-linecap="round" stroke-width="47.666691" fill-rule="nonzero" fill="#000000"/>
  <path d="m272.512146,152.078033c-22.642776,-2.369171 -34.040268,-7.446167 -39.499985,-12c-17.754181,-14.808411 -11.325348,-28.549896 -22,-25.5c-10.5,3 -10.4767,14.694916 -17.5,18c-8.5,4 2.037125,-35.167847 -6.5,-32.5c-8,2.5 -8.971848,22.345093 -21,27.5c-10.5,4.5 6.609024,-46.582703 -8,-35.5c-14.5,11 -35,55 -1,67c34,12 84.446655,15.486877 100.999985,15c17,-0.5 32.659912,-20.099854 14.5,-22z" id="path3171" stroke-miterlimit="4" stroke-linejoin="round" stroke-width="4" stroke="#000000" fill-rule="evenodd" fill="#ffffff"/>
  <title>Layer 1</title>
 </g>
</svg>