<svg xmlns="http://www.w3.org/2000/svg" width="335.62" height="312.58">
  <title>
    Layer 1
  </title>
  <g id="layer1">
    <path fill="#ffffff" fill-rule="nonzero" stroke="#000000" stroke-width="3.29" stroke-linecap="round" stroke-linejoin="round" stroke-miterlimit="4" id="path2383" d="m277.68 190.61c0.02 60.51-49.03 109.57-109.54 109.57 -60.51 0-109.55-49.06-109.54-109.57 -0.02-60.51 49.03-109.57 109.54-109.57 60.51 0 109.55 49.06 109.54 109.57zM271.06 153.04 271.06 153.04 271.06 153.04"/>
    <path fill="#000000" fill-opacity="0.31" fill-rule="nonzero" stroke-width="4" stroke-linecap="round" stroke-linejoin="round" stroke-miterlimit="4" id="path3221" d="m271.06 153.04c0.08 1.68 0.13 3.39 0.13 5.09 0 60.46-49.07 109.53-109.53 109.53 -47.26 0-87.59-30-102.94-71.97 2.65 58.11 50.67 104.47 109.44 104.47 60.46 0 109.53-49.07 109.53-109.53 0-13.2-2.34-25.87-6.62-37.59z"/>
    <path fill="#ffffff" fill-rule="nonzero" stroke="#000000" stroke-width="4" stroke-linecap="round" stroke-linejoin="round" stroke-miterlimit="4" id="path3172" d="m176.33 301.19c0 9.09 14.67 9.38 32.74 9.38 18.07 0 32.74 0.69 32.74-9.38 0-17.72-14.67-32.09-32.74-32.09 -18.07 0-32.74 14.38-32.74 32.09z"/>
    <path fill="#000000" fill-opacity="0.31" fill-rule="nonzero" stroke-width="4" stroke-linecap="round" stroke-linejoin="round" stroke-miterlimit="4" id="path3236" d="m252.78 166.74c0 50.6-55.12 91.67-81.84 91.67 -25.72 0-81.84-41.07-81.84-91.67 0-50.6 24.63-91.67 81.84-91.67 57.22 0 81.84 41.07 81.84 91.67z"/>
    <path fill="#000000" fill-opacity="0.31" fill-rule="evenodd" stroke="#000000" stroke-width="4" stroke-linejoin="round" stroke-miterlimit="4" id="path3174" d="m221.65 309.97c0-16.37-9.44-26.44-9.44-26.44 0 0 3.78 13.85 3.15 26.44l6.3 0z"/>
    <path fill="#ffffff" fill-rule="nonzero" stroke="#000000" stroke-width="4" stroke-linecap="round" stroke-linejoin="round" stroke-miterlimit="4" id="path3155" d="m165.48 60.32c-30.13 0.68-50.93 13.05-63.62 32.2 -24.06-2.9-44.06 26.46-44.06 26.46 0 0 18.89 10.58 32.06 1.72 -2.4 9.76-3.56 20.28-3.56 31.26 0 50.6 56.13 91.67 81.84 91.67 26.72 0 81.84-41.07 81.84-91.67 0-10.98-1.16-21.5-3.56-31.26 13.17 8.87 32.03-1.72 32.03-1.72 0 0-19.97-29.35-44.03-26.46 -13.06-19.71-34.71-32.2-66.28-32.2 -0.89 0-1.78-0.02-2.66 0z"/>
    <path fill="#ffffff" fill-rule="evenodd" stroke="#000000" stroke-width="5" stroke-linejoin="round" stroke-miterlimit="4" id="path2399" d="m199.11 64.08c22.64-2.37 34.04-7.45 39.5-12 17.75-14.81 11.33-28.55 22-25.5 10.5 3 10.48 14.69 17.5 18 8.5 4-2.04-35.17 6.5-32.5 8 2.5 8.97 22.35 21 27.5 10.5 4.5-6.61-46.58 8-35.5 14.5 11 35 55 1 67 -34 12-84.45 15.49-101 15 -17-0.5-32.66-20.1-14.5-22z"/>
    <path fill="#ffffff" fill-rule="nonzero" stroke="#000000" stroke-width="5.89" stroke-linecap="round" stroke-linejoin="round" stroke-miterlimit="4" id="path3157" d="m164.52 130.15c0 12.52-10.14 22.67-22.66 22.67 -12.52 0-22.67-10.15-22.66-22.67 0-12.52 10.14-22.67 22.66-22.67 12.52 0 22.67 10.15 22.66 22.67z"/>
    <path fill="#ffffff" fill-rule="nonzero" stroke="#000000" stroke-width="5.89" stroke-linecap="round" stroke-linejoin="round" stroke-miterlimit="4" id="path3159" d="m217.25 130.15c0 12.52-10.14 22.67-22.66 22.67 -12.52 0-22.67-10.15-22.66-22.67 0-12.52 10.14-22.67 22.66-22.67 12.52 0 22.67 10.15 22.66 22.67z"/>
    <path fill="#000000" fill-rule="nonzero" stroke-width="23.67" stroke-linecap="round" stroke-linejoin="round" stroke-miterlimit="4" id="path3161" d="m197.1 134.15c0 4.17-3.38 7.56-7.55 7.56 -4.17 0-7.56-3.38-7.55-7.56 0-4.17 3.38-7.56 7.55-7.56 4.17 0 7.56 3.38 7.55 7.56z"/>
    <path fill="#000000" fill-rule="nonzero" stroke-width="47.67" stroke-linecap="round" stroke-linejoin="round" stroke-miterlimit="4" id="path3163" d="m155.07 134.15c0 4.17-3.38 7.56-7.55 7.56 -4.17 0-7.56-3.38-7.55-7.56 0-4.17 3.38-7.56 7.55-7.56 4.17 0 7.56 3.38 7.55 7.56z"/>
    <path fill="#000000" fill-opacity="0.31" fill-rule="nonzero" stroke-width="4" stroke-linecap="round" stroke-linejoin="round" stroke-miterlimit="4" id="path3231" d="m246.7 121.93l-1.87 2.98c0.25 3.44 0.34 6.95 0.34 10.5 0 50.6-55.13 91.67-81.84 91.67 -20.71 0-61.1-26.61-76.06-63.39 7.62 45.08 57.17 79.95 80.88 79.95 26.72 0 81.84-41.07 81.84-91.67 0-10.52-1.08-20.62-3.28-30.03z"/>
    <path fill="#ffffff" fill-rule="nonzero" stroke="#000000" stroke-width="4" stroke-linecap="round" stroke-linejoin="round" stroke-miterlimit="4" id="path3329" d="m161.33 301.19c0 9.09-14.67 9.38-32.74 9.38 -18.07 0-32.74 0.69-32.74-9.38 0-17.72 14.67-32.09 32.74-32.09 18.07 0 32.74 14.38 32.74 32.09z"/>
    <path fill="#000000" fill-opacity="0.31" fill-rule="evenodd" stroke="#000000" stroke-width="4" stroke-linejoin="round" stroke-miterlimit="4" id="path3331" d="m116 309.97c0-16.37 9.44-26.44 9.44-26.44 0 0-3.78 13.85-3.15 26.44l-6.3 0z"/>
    <path fill="#000000" fill-rule="nonzero" stroke-width="47.67" stroke-linecap="round" stroke-linejoin="round" stroke-miterlimit="4" id="path2398" d="m184.74 206.28c-2.29 3.97-6.5 5.84-9.4 4.17 -2.9-1.67-3.38-6.25-1.09-10.22 2.29-3.97 6.5-5.84 9.4-4.17 2.9 1.67 3.38 6.25 1.09 10.22z"/>
    <path fill="#000000" fill-rule="nonzero" stroke-width="47.67" stroke-linecap="round" stroke-linejoin="round" stroke-miterlimit="4" id="path2412" d="m152 206.28c2.29 3.97 6.5 5.84 9.4 4.17 2.9-1.67 3.38-6.25 1.09-10.22 -2.29-3.97-6.5-5.84-9.4-4.17 -2.9 1.67-3.38 6.25-1.09 10.22z"/>
    <path fill="#ffffff" fill-rule="evenodd" stroke="#000000" stroke-width="5" stroke-linejoin="round" stroke-miterlimit="4" id="path3171" d="m136.51 64.08c-22.64-2.37-34.04-7.45-39.5-12 -17.75-14.81-11.33-28.55-22-25.5 -10.5 3-10.48 14.69-17.5 18 -8.5 4 2.04-35.17-6.5-32.5 -8 2.5-8.97 22.35-21 27.5 -10.5 4.5 6.61-46.58-8-35.5 -14.5 11-35 55-1 67 34 12 84.45 15.49 101 15 17-0.5 32.66-20.1 14.5-22z"/>
  </g>
</svg>
