<?xml version="1.0"?><svg width="335.62131" height="312.57803" xmlns="http://www.w3.org/2000/svg">

 <g>
  <title>Layer 1</title>
  <g id="layer1">
   <path fill="#784421" fill-rule="nonzero" stroke="#000000" stroke-width="3.287356" stroke-linecap="round" stroke-linejoin="round" stroke-miterlimit="4" id="path2383" d="m277.681335,190.614655c0.018036,60.508072 -49.028381,109.569092 -109.536438,109.569092c-60.508072,0 -109.554497,-49.06102 -109.536453,-109.569092c-0.018044,-60.508057 49.028381,-109.569122 109.536453,-109.569122c60.508057,0 109.554474,49.061066 109.536438,109.569122z"/>
   <path fill="#000000" fill-opacity="0.313725" fill-rule="nonzero" stroke-width="4" stroke-linecap="round" stroke-linejoin="round" stroke-miterlimit="4" id="path3221" d="m271.060486,153.036011c0.076782,1.68158 0.125,3.393311 0.125,5.09375c0,60.464294 -49.06694,109.53125 -109.531235,109.53125c-47.262177,0 -87.591187,-29.999268 -102.9375,-71.96875c2.653503,58.112183 50.673645,104.46875 109.4375,104.46875c60.464294,0 109.531235,-49.066956 109.531235,-109.53125c0,-13.202209 -2.338135,-25.870056 -6.625,-37.59375z"/>
   <path fill="#502d16" fill-rule="nonzero" stroke="#000000" stroke-width="4" stroke-linecap="round" stroke-linejoin="round" stroke-miterlimit="4" id="path3172" d="m176.326309,301.186523c0,9.090759 14.665344,9.381348 32.735107,9.381348c18.069794,0 32.735138,0.693481 32.735138,-9.381348c0,-17.715942 -14.665344,-32.094116 -32.735138,-32.094116c-18.069763,0 -32.735107,14.378174 -32.735107,32.094116z"/>
   <path fill="#000000" fill-opacity="0.313725" fill-rule="nonzero" stroke-width="4" stroke-linecap="round" stroke-linejoin="round" stroke-miterlimit="4" id="path3236" d="m252.781265,166.743103c0,50.599854 -55.121216,91.666382 -81.837799,91.666382c-25.718262,0 -81.83783,-41.066528 -81.83783,-91.666382c0,-50.599854 24.625031,-91.666382 81.83783,-91.666382c57.222565,0 81.837799,41.066528 81.837799,91.666382z"/>
   <path fill="#000000" fill-opacity="0.313725" fill-rule="evenodd" stroke="#000000" stroke-width="4" stroke-linejoin="round" stroke-miterlimit="4" id="path3174" d="m221.65184,309.966919c0,-16.367554 -9.44281,-26.439941 -9.44281,-26.439941c0,0 3.77713,13.849487 3.147614,26.439941l6.295197,0z"/>
   <path fill="#593218" fill-rule="nonzero" stroke="#000000" stroke-width="4" stroke-linecap="round" stroke-linejoin="round" stroke-miterlimit="4" id="path3155" d="m165.484268,60.321564c-30.129242,0.683929 -50.931671,13.052826 -63.625,32.20285c-24.064423,-2.89859 -44.062485,26.462311 -44.062485,26.462311c0,0 18.891129,10.580811 32.062485,1.715149c-2.399231,9.757996 -3.5625,20.280457 -3.5625,31.257721c0,50.599915 56.125519,91.673096 81.84375,91.673096c26.716614,0 81.84375,-41.073181 81.84375,-91.673096c0,-10.977264 -1.163879,-21.499725 -3.5625,-31.257721c13.171371,8.865662 32.031235,-1.715149 32.031235,-1.715149c0,0 -19.971191,-29.351685 -44.031235,-26.462311c-13.061646,-19.70813 -34.707672,-32.20285 -66.28125,-32.20285c-0.893951,0 -1.778168,-0.019928 -2.65625,0z"/>
   <path fill="#ba8d73" fill-rule="evenodd" stroke="#000000" stroke-width="5" stroke-linejoin="round" stroke-miterlimit="4" id="path2399" d="m199.109268,64.078003c22.642822,-2.369171 34.040314,-7.446167 39.5,-12c17.754196,-14.808411 11.325348,-28.549896 21.999985,-25.5c10.5,3 10.476746,14.694916 17.5,18c8.5,4 -2.037109,-35.167847 6.5,-32.5c8,2.5 8.971863,22.345093 21,27.5c10.5,4.5 -6.609009,-46.582703 8,-35.5c14.5,11 35,55 1,67c-34,12 -84.44664,15.486877 -100.999985,15c-17,-0.5 -32.659882,-20.099854 -14.5,-22z"/>
   <path fill="#ffffff" fill-rule="nonzero" stroke="#000000" stroke-width="5.88889" stroke-linecap="round" stroke-linejoin="round" stroke-miterlimit="4" id="path3157" d="m164.516037,130.146606c0.003738,12.518936 -10.143814,22.66951 -22.66275,22.66951c-12.518936,0 -22.666481,-10.150574 -22.66275,-22.66951c-0.003731,-12.518921 10.143814,-22.669495 22.66275,-22.669495c12.518936,0 22.666489,10.150574 22.66275,22.669495z"/>
   <path fill="#ffffff" fill-rule="nonzero" stroke="#000000" stroke-width="5.88889" stroke-linecap="round" stroke-linejoin="round" stroke-miterlimit="4" id="path3159" d="m217.249039,130.146606c0.003738,12.518936 -10.143814,22.66951 -22.66275,22.66951c-12.518936,0 -22.666489,-10.150574 -22.66275,-22.66951c-0.003738,-12.518921 10.143814,-22.669495 22.66275,-22.669495c12.518936,0 22.666489,10.150574 22.66275,22.669495z"/>
   <path fill="#000000" fill-rule="nonzero" stroke-width="23.666691" stroke-linecap="round" stroke-linejoin="round" stroke-miterlimit="4" id="path3161" d="m197.103683,134.14621c0.001236,4.172989 -3.381271,7.556519 -7.554245,7.556519c-4.172989,0 -7.555511,-3.38353 -7.55426,-7.556519c-0.001251,-4.172974 3.381271,-7.556488 7.55426,-7.556488c4.172974,0 7.555481,3.383514 7.554245,7.556488z"/>
   <path fill="#000000" fill-rule="nonzero" stroke-width="47.666691" stroke-linecap="round" stroke-linejoin="round" stroke-miterlimit="4" id="path3163" d="m155.073685,134.14621c0.001236,4.172989 -3.381271,7.556519 -7.554245,7.556519c-4.172989,0 -7.555511,-3.38353 -7.55426,-7.556519c-0.001251,-4.172974 3.381271,-7.556488 7.55426,-7.556488c4.172974,0 7.555481,3.383514 7.554245,7.556488z"/>
   <path fill="#000000" fill-opacity="0.313725" fill-rule="nonzero" stroke-width="4" stroke-linecap="round" stroke-linejoin="round" stroke-miterlimit="4" id="path3231" d="m246.703018,121.926971l-1.875,2.975281c0.248901,3.444824 0.34375,6.947571 0.34375,10.500916c0,50.599884 -55.127136,91.673065 -81.84375,91.673065c-20.705811,0 -61.09671,-26.608643 -76.0625,-63.390564c7.615814,45.079773 57.171906,79.947021 80.875,79.947021c26.716614,0 81.84375,-41.073242 81.84375,-91.673096c0,-10.51944 -1.075378,-20.621277 -3.28125,-30.032623z"/>
   <path fill="#502d16" fill-rule="nonzero" stroke="#000000" stroke-width="4" stroke-linecap="round" stroke-linejoin="round" stroke-miterlimit="4" id="path3329" d="m161.328506,301.186523c0,9.090759 -14.665344,9.381348 -32.735107,9.381348c-18.069794,0 -32.735138,0.693481 -32.735138,-9.381348c0,-17.715942 14.665344,-32.094116 32.735138,-32.094116c18.069763,0 32.735107,14.378174 32.735107,32.094116z"/>
   <path fill="#000000" fill-opacity="0.313725" fill-rule="evenodd" stroke="#000000" stroke-width="4" stroke-linejoin="round" stroke-miterlimit="4" id="path3331" d="m116.002975,309.966919c0,-16.367554 9.44281,-26.439941 9.44281,-26.439941c0,0 -3.77713,13.849487 -3.147614,26.439941l-6.295197,0z"/>
   <path fill="#000000" fill-rule="nonzero" stroke-width="47.666691" stroke-linecap="round" stroke-linejoin="round" stroke-miterlimit="4" id="path2398" d="m184.74147,206.277954c-2.292725,3.973083 -6.500244,5.838562 -9.396759,4.16626c-2.896545,-1.672302 -3.384735,-6.248901 -1.090302,-10.221008c2.292725,-3.973083 6.500275,-5.838562 9.39679,-4.16626c2.896545,1.672302 3.384705,6.248901 1.090271,10.221008z"/>
   <path fill="#000000" fill-rule="nonzero" stroke-width="47.666691" stroke-linecap="round" stroke-linejoin="round" stroke-miterlimit="4" id="path2412" d="m152.00441,206.277954c2.292725,3.973083 6.500275,5.838562 9.39679,4.16626c2.896545,-1.672302 3.384705,-6.248901 1.090271,-10.221008c-2.292725,-3.973083 -6.500244,-5.838562 -9.39679,-4.16626c-2.896515,1.672302 -3.384705,6.248901 -1.090271,10.221008z"/>
   <path fill="#ad7e61" fill-rule="evenodd" stroke="#000000" stroke-width="5" stroke-linejoin="round" stroke-miterlimit="4" id="path3171" d="m136.512283,64.078003c-22.642792,-2.369171 -34.040283,-7.446167 -39.5,-12c-17.754181,-14.808411 -11.325348,-28.549896 -22,-25.5c-10.5,3 -10.476715,14.694916 -17.5,18c-8.5,4 2.037125,-35.167847 -6.5,-32.5c-8,2.5 -8.971848,22.345093 -21,27.5c-10.5,4.5 6.609024,-46.582703 -8,-35.5c-14.5,11 -35,55 -1,67c34,12 84.446655,15.486877 101,15c17,-0.5 32.659882,-20.099854 14.5,-22z"/>
  </g>
 </g>
</svg>