<?xml version="1.0"?>
<svg version="1.1" xmlns="http://www.w3.org/2000/svg" xmlns:xlink="http://www.w3.org/1999/xlink" width="335.62" height="312.58">
    <desc iVinci="yes" version="4.6" gridStep="20" showGrid="no" snapToGrid="no" codePlatform="0"/>
    <g id="Layer1" name="Layer 1" opacity="1">
        <g id="Shape1">
            <desc shapeID="1" type="0" basicInfo-basicType="0" basicInfo-roundedRectRadius="12" basicInfo-polygonSides="6" basicInfo-starPoints="5" bounding="rect(-109.54,-109.57,219.08,219.14)" text="" font-familyName="" font-pixelSize="20" font-bold="0" font-underline="0" font-alignment="1" strokeStyle="0" markerStart="0" markerEnd="0" shadowEnabled="0" shadowOffsetX="0" shadowOffsetY="2" shadowBlur="4" shadowOpacity="160" blurEnabled="0" blurRadius="4" transform="matrix(1,0,0,1,168.14,190.61)" pers-center="0,0" pers-size="0,0" pers-start="0,0" pers-end="0,0" locked="0" mesh="" flag=""/>
            <path id="shapePath1" d="M277.68,190.61 C277.7,251.12 228.65,300.18 168.14,300.18 C107.63,300.18 58.59,251.12 58.6,190.61 C58.58,130.1 107.63,81.04 168.14,81.04 C228.65,81.04 277.69,130.1 277.68,190.61 M271.06,153.04 " style="stroke:#000000;stroke-opacity:1;stroke-width:5.89;stroke-linejoin:round;stroke-miterlimit:2;stroke-linecap:round;fill-rule:evenodd;fill:#ffffff;fill-opacity:1;"/>
        </g>
        <g id="Shape2">
            <desc shapeID="2" type="0" basicInfo-basicType="0" basicInfo-roundedRectRadius="12" basicInfo-polygonSides="6" basicInfo-starPoints="5" bounding="rect(-32.74,-20.74,65.48,41.48)" text="" font-familyName="" font-pixelSize="20" font-bold="0" font-underline="0" font-alignment="1" strokeStyle="0" markerStart="0" markerEnd="0" shadowEnabled="0" shadowOffsetX="0" shadowOffsetY="2" shadowBlur="4" shadowOpacity="160" blurEnabled="0" blurRadius="4" transform="matrix(1,0,0,1,209.07,289.84)" pers-center="0,0" pers-size="0,0" pers-start="0,0" pers-end="0,0" locked="0" mesh="" flag=""/>
            <path id="shapePath2" d="M176.33,301.19 C176.33,310.28 191,310.57 209.07,310.57 C227.14,310.57 241.81,311.26 241.81,301.19 C241.81,283.47 227.14,269.1 209.07,269.1 C191,269.1 176.33,283.48 176.33,301.19 Z" style="stroke:#000000;stroke-opacity:1;stroke-width:4;stroke-linejoin:round;stroke-miterlimit:2;stroke-linecap:round;fill-rule:evenodd;fill:#ffffff;fill-opacity:1;"/>
        </g>
        <g id="Shape3">
            <desc shapeID="3" type="0" basicInfo-basicType="0" basicInfo-roundedRectRadius="12" basicInfo-polygonSides="6" basicInfo-starPoints="5" bounding="rect(-4.72499,-13.22,9.45,26.44)" text="" font-familyName="" font-pixelSize="20" font-bold="0" font-underline="0" font-alignment="1" strokeStyle="0" markerStart="0" markerEnd="0" shadowEnabled="0" shadowOffsetX="0" shadowOffsetY="2" shadowBlur="4" shadowOpacity="160" blurEnabled="0" blurRadius="4" transform="matrix(1,0,0,1,216.935,296.75)" pers-center="0,0" pers-size="0,0" pers-start="0,0" pers-end="0,0" locked="0" mesh="" flag=""/>
            <path id="shapePath3" d="M221.65,309.97 C221.65,293.6 212.21,283.53 212.21,283.53 C212.21,283.53 215.99,297.38 215.36,309.97 L221.66,309.97 L221.65,309.97 Z" style="stroke:#000000;stroke-opacity:1;stroke-width:4;stroke-linejoin:round;stroke-miterlimit:2;stroke-linecap:butt;fill-rule:evenodd;fill:#000000;fill-opacity:0.309804;"/>
        </g>
        <g id="Shape4">
            <desc shapeID="4" type="0" basicInfo-basicType="0" basicInfo-roundedRectRadius="12" basicInfo-polygonSides="6" basicInfo-starPoints="5" bounding="rect(-110.325,-91.6592,220.65,183.319)" text="" font-familyName="" font-pixelSize="20" font-bold="0" font-underline="0" font-alignment="1" strokeStyle="0" markerStart="0" markerEnd="0" shadowEnabled="0" shadowOffsetX="0" shadowOffsetY="2" shadowBlur="4" shadowOpacity="160" blurEnabled="0" blurRadius="4" transform="matrix(1,0,0,1,168.125,151.97)" pers-center="0,0" pers-size="0,0" pers-start="0,0" pers-end="0,0" locked="0" mesh="" flag=""/>
            <path id="shapePath4" d="M165.48,60.32 C135.35,61 114.55,73.37 101.86,92.52 C77.8,89.62 57.8,118.98 57.8,118.98 C57.8,118.98 76.69,129.56 89.86,120.7 C87.46,130.46 86.3,140.98 86.3,151.96 C86.3,202.56 142.43,243.63 168.14,243.63 C194.86,243.63 249.98,202.56 249.98,151.96 C249.98,140.98 248.82,130.46 246.42,120.7 C259.59,129.57 278.45,118.98 278.45,118.98 C278.45,118.98 258.48,89.63 234.42,92.52 C221.36,72.81 199.71,60.32 168.14,60.32 C167.25,60.32 166.36,60.3 165.48,60.32 Z" style="stroke:#000000;stroke-opacity:1;stroke-width:5.89;stroke-linejoin:round;stroke-miterlimit:2;stroke-linecap:round;fill-rule:evenodd;fill:#ffffff;fill-opacity:1;"/>
        </g>
        <g id="Shape5">
            <desc shapeID="5" type="0" basicInfo-basicType="0" basicInfo-roundedRectRadius="12" basicInfo-polygonSides="6" basicInfo-starPoints="5" bounding="rect(-71.0611,-41.8108,142.121,83.6216)" text="" font-familyName="" font-pixelSize="20" font-bold="0" font-underline="0" font-alignment="1" strokeStyle="0" markerStart="0" markerEnd="0" shadowEnabled="0" shadowOffsetX="0" shadowOffsetY="2" shadowBlur="4" shadowOpacity="160" blurEnabled="0" blurRadius="4" transform="matrix(1,0,0,1,262.062,44.3134)" pers-center="0,0" pers-size="0,0" pers-start="0,0" pers-end="0,0" locked="0" mesh="" flag=""/>
            <path id="shapePath5" d="M199.11,64.08 C221.75,61.71 233.15,56.63 238.61,52.08 C256.36,37.27 249.94,23.53 260.61,26.58 C271.11,29.58 271.09,41.27 278.11,44.58 C286.61,48.58 276.07,9.41 284.61,12.08 C292.61,14.58 293.58,34.43 305.61,39.58 C316.11,44.08 299,-7 313.61,4.08 C328.11,15.08 348.61,59.08 314.61,71.08 C280.61,83.08 230.16,86.57 213.61,86.08 C196.61,85.58 180.95,65.98 199.11,64.08 Z" style="stroke:#000000;stroke-opacity:1;stroke-width:5;stroke-linejoin:round;stroke-miterlimit:2;stroke-linecap:butt;fill-rule:evenodd;fill:#ffffff;fill-opacity:1;"/>
        </g>
        <g id="Shape6">
            <desc shapeID="6" type="0" basicInfo-basicType="0" basicInfo-roundedRectRadius="12" basicInfo-polygonSides="6" basicInfo-starPoints="5" bounding="rect(-22.66,-22.67,45.32,45.34)" text="" font-familyName="" font-pixelSize="20" font-bold="0" font-underline="0" font-alignment="1" strokeStyle="0" markerStart="0" markerEnd="0" shadowEnabled="0" shadowOffsetX="0" shadowOffsetY="2" shadowBlur="4" shadowOpacity="160" blurEnabled="0" blurRadius="4" transform="matrix(1,0,0,1,141.86,130.15)" pers-center="0,0" pers-size="0,0" pers-start="0,0" pers-end="0,0" locked="0" mesh="" flag=""/>
            <path id="shapePath6" d="M164.52,130.15 C164.52,142.67 154.38,152.82 141.86,152.82 C129.34,152.82 119.19,142.67 119.2,130.15 C119.2,117.63 129.34,107.48 141.86,107.48 C154.38,107.48 164.53,117.63 164.52,130.15 Z" style="stroke:#000000;stroke-opacity:1;stroke-width:5.89;stroke-linejoin:round;stroke-miterlimit:2;stroke-linecap:round;fill-rule:evenodd;fill:#ffffff;fill-opacity:1;"/>
        </g>
        <g id="Shape7">
            <desc shapeID="7" type="0" basicInfo-basicType="0" basicInfo-roundedRectRadius="12" basicInfo-polygonSides="6" basicInfo-starPoints="5" bounding="rect(-22.66,-22.67,45.32,45.34)" text="" font-familyName="" font-pixelSize="20" font-bold="0" font-underline="0" font-alignment="1" strokeStyle="0" markerStart="0" markerEnd="0" shadowEnabled="0" shadowOffsetX="0" shadowOffsetY="2" shadowBlur="4" shadowOpacity="160" blurEnabled="0" blurRadius="4" transform="matrix(1,0,0,1,194.59,130.15)" pers-center="0,0" pers-size="0,0" pers-start="0,0" pers-end="0,0" locked="0" mesh="" flag=""/>
            <path id="shapePath7" d="M217.25,130.15 C217.25,142.67 207.11,152.82 194.59,152.82 C182.07,152.82 171.92,142.67 171.93,130.15 C171.93,117.63 182.07,107.48 194.59,107.48 C207.11,107.48 217.26,117.63 217.25,130.15 Z" style="stroke:#000000;stroke-opacity:1;stroke-width:5.89;stroke-linejoin:round;stroke-miterlimit:2;stroke-linecap:round;fill-rule:evenodd;fill:#ffffff;fill-opacity:1;"/>
        </g>
        <g id="Shape8">
            <desc shapeID="8" type="0" basicInfo-basicType="0" basicInfo-roundedRectRadius="12" basicInfo-polygonSides="6" basicInfo-starPoints="5" bounding="rect(-7.54999,-7.56002,15.1001,15.12)" text="" font-familyName="" font-pixelSize="20" font-bold="0" font-underline="0" font-alignment="1" strokeStyle="0" markerStart="0" markerEnd="0" shadowEnabled="0" shadowOffsetX="0" shadowOffsetY="2" shadowBlur="4" shadowOpacity="160" blurEnabled="0" blurRadius="4" transform="matrix(1,0,0,1,189.55,134.15)" pers-center="0,0" pers-size="0,0" pers-start="0,0" pers-end="0,0" locked="0" mesh="" flag=""/>
            <path id="shapePath8" d="M197.1,134.15 C197.1,138.32 193.72,141.71 189.55,141.71 C185.38,141.71 181.99,138.33 182,134.15 C182,129.98 185.38,126.59 189.55,126.59 C193.72,126.59 197.11,129.97 197.1,134.15 Z" style="stroke:none;fill-rule:evenodd;fill:#000000;fill-opacity:1;"/>
        </g>
        <g id="Shape9">
            <desc shapeID="9" type="0" basicInfo-basicType="0" basicInfo-roundedRectRadius="12" basicInfo-polygonSides="6" basicInfo-starPoints="5" bounding="rect(-7.54999,-7.56002,15.1001,15.12)" text="" font-familyName="" font-pixelSize="20" font-bold="0" font-underline="0" font-alignment="1" strokeStyle="0" markerStart="0" markerEnd="0" shadowEnabled="0" shadowOffsetX="0" shadowOffsetY="2" shadowBlur="4" shadowOpacity="160" blurEnabled="0" blurRadius="4" transform="matrix(1,0,0,1,147.52,134.15)" pers-center="0,0" pers-size="0,0" pers-start="0,0" pers-end="0,0" locked="0" mesh="" flag=""/>
            <path id="shapePath9" d="M155.07,134.15 C155.07,138.32 151.69,141.71 147.52,141.71 C143.35,141.71 139.96,138.33 139.97,134.15 C139.97,129.98 143.35,126.59 147.52,126.59 C151.69,126.59 155.08,129.97 155.07,134.15 Z" style="stroke:none;fill-rule:evenodd;fill:#000000;fill-opacity:1;"/>
        </g>
        <g id="Shape10">
            <desc shapeID="10" type="0" basicInfo-basicType="0" basicInfo-roundedRectRadius="12" basicInfo-polygonSides="6" basicInfo-starPoints="5" bounding="rect(-32.74,-20.74,65.48,41.48)" text="" font-familyName="" font-pixelSize="20" font-bold="0" font-underline="0" font-alignment="1" strokeStyle="0" markerStart="0" markerEnd="0" shadowEnabled="0" shadowOffsetX="0" shadowOffsetY="2" shadowBlur="4" shadowOpacity="160" blurEnabled="0" blurRadius="4" transform="matrix(1,0,0,1,128.59,289.84)" pers-center="0,0" pers-size="0,0" pers-start="0,0" pers-end="0,0" locked="0" mesh="" flag=""/>
            <path id="shapePath10" d="M161.33,301.19 C161.33,310.28 146.66,310.57 128.59,310.57 C110.52,310.57 95.85,311.26 95.85,301.19 C95.85,283.47 110.52,269.1 128.59,269.1 C146.66,269.1 161.33,283.48 161.33,301.19 Z" style="stroke:#000000;stroke-opacity:1;stroke-width:4;stroke-linejoin:round;stroke-miterlimit:2;stroke-linecap:round;fill-rule:evenodd;fill:#ffffff;fill-opacity:1;"/>
        </g>
        <g id="Shape11">
            <desc shapeID="11" type="0" basicInfo-basicType="0" basicInfo-roundedRectRadius="12" basicInfo-polygonSides="6" basicInfo-starPoints="5" bounding="rect(-4.725,-13.22,9.45,26.44)" text="" font-familyName="" font-pixelSize="20" font-bold="0" font-underline="0" font-alignment="1" strokeStyle="0" markerStart="0" markerEnd="0" shadowEnabled="0" shadowOffsetX="0" shadowOffsetY="2" shadowBlur="4" shadowOpacity="160" blurEnabled="0" blurRadius="4" transform="matrix(1,0,0,1,120.715,296.75)" pers-center="0,0" pers-size="0,0" pers-start="0,0" pers-end="0,0" locked="0" mesh="" flag=""/>
            <path id="shapePath11" d="M116,309.97 C116,293.6 125.44,283.53 125.44,283.53 C125.44,283.53 121.66,297.38 122.29,309.97 L115.99,309.97 L116,309.97 Z" style="stroke:#000000;stroke-opacity:1;stroke-width:4;stroke-linejoin:round;stroke-miterlimit:2;stroke-linecap:butt;fill-rule:evenodd;fill:#000000;fill-opacity:0.309804;"/>
        </g>
        <g id="Shape12">
            <desc shapeID="12" type="0" basicInfo-basicType="0" basicInfo-roundedRectRadius="12" basicInfo-polygonSides="6" basicInfo-starPoints="5" bounding="rect(-6.69066,-7.80632,13.3812,15.6125)" text="" font-familyName="" font-pixelSize="20" font-bold="0" font-underline="0" font-alignment="1" strokeStyle="0" markerStart="0" markerEnd="0" shadowEnabled="0" shadowOffsetX="0" shadowOffsetY="2" shadowBlur="4" shadowOpacity="160" blurEnabled="0" blurRadius="4" transform="matrix(1,0,0,1,179.495,203.255)" pers-center="0,0" pers-size="0,0" pers-start="0,0" pers-end="0,0" locked="0" mesh="" flag=""/>
            <path id="shapePath12" d="M184.74,206.28 C182.45,210.25 178.24,212.12 175.34,210.45 C172.44,208.78 171.96,204.2 174.25,200.23 C176.54,196.26 180.75,194.39 183.65,196.06 C186.55,197.73 187.03,202.31 184.74,206.28 Z" style="stroke:none;fill-rule:evenodd;fill:#000000;fill-opacity:1;"/>
        </g>
        <g id="Shape13">
            <desc shapeID="13" type="0" basicInfo-basicType="0" basicInfo-roundedRectRadius="12" basicInfo-polygonSides="6" basicInfo-starPoints="5" bounding="rect(-6.69066,-7.80632,13.3812,15.6125)" text="" font-familyName="" font-pixelSize="20" font-bold="0" font-underline="0" font-alignment="1" strokeStyle="0" markerStart="0" markerEnd="0" shadowEnabled="0" shadowOffsetX="0" shadowOffsetY="2" shadowBlur="4" shadowOpacity="160" blurEnabled="0" blurRadius="4" transform="matrix(1,0,0,1,157.245,203.255)" pers-center="0,0" pers-size="0,0" pers-start="0,0" pers-end="0,0" locked="0" mesh="" flag=""/>
            <path id="shapePath13" d="M152,206.28 C154.29,210.25 158.5,212.12 161.4,210.45 C164.3,208.78 164.78,204.2 162.49,200.23 C160.2,196.26 155.99,194.39 153.09,196.06 C150.19,197.73 149.71,202.31 152,206.28 Z" style="stroke:none;fill-rule:evenodd;fill:#000000;fill-opacity:1;"/>
        </g>
        <g id="Shape14">
            <desc shapeID="14" type="0" basicInfo-basicType="0" basicInfo-roundedRectRadius="12" basicInfo-polygonSides="6" basicInfo-starPoints="5" bounding="rect(-71.0611,-41.8108,142.121,83.6216)" text="" font-familyName="" font-pixelSize="20" font-bold="0" font-underline="0" font-alignment="1" strokeStyle="0" markerStart="0" markerEnd="0" shadowEnabled="0" shadowOffsetX="0" shadowOffsetY="2" shadowBlur="4" shadowOpacity="160" blurEnabled="0" blurRadius="4" transform="matrix(1,0,0,1,73.5589,44.3134)" pers-center="0,0" pers-size="0,0" pers-start="0,0" pers-end="0,0" locked="0" mesh="" flag=""/>
            <path id="shapePath14" d="M136.51,64.08 C113.87,61.71 102.47,56.63 97.01,52.08 C79.26,37.27 85.68,23.53 75.01,26.58 C64.51,29.58 64.53,41.27 57.51,44.58 C49.01,48.58 59.55,9.41 51.01,12.08 C43.01,14.58 42.04,34.43 30.01,39.58 C19.51,44.08 36.62,-7 22.01,4.08 C7.51,15.08 -12.99,59.08 21.01,71.08 C55.01,83.08 105.46,86.57 122.01,86.08 C139.01,85.58 154.67,65.98 136.51,64.08 Z" style="stroke:#000000;stroke-opacity:1;stroke-width:5;stroke-linejoin:round;stroke-miterlimit:2;stroke-linecap:butt;fill-rule:evenodd;fill:#ffffff;fill-opacity:1;"/>
        </g>
    </g>
</svg>
